<svg width="92" height="104" viewBox="0 0 92 104" fill="none" xmlns="http://www.w3.org/2000/svg">
<path d="M29.2991 6.68419C29.2991 9.60684 27.2319 11.9706 24.6872 11.9706C22.1425 11.9706 20.0753 9.60101 20.0753 6.68419C20.0753 3.76737 22.1425 1.39783 24.6872 1.39783C27.2319 1.39783 29.2991 3.76737 29.2991 6.68419Z" fill="#0F6EB7"/>
<path d="M71.9231 6.68419C71.9231 9.60684 69.8559 11.9706 67.3112 11.9706C64.7666 11.9706 62.6993 9.60101 62.6993 6.68419C62.6993 3.76737 64.7666 1.39783 67.3112 1.39783C69.8559 1.39783 71.9231 3.76737 71.9231 6.68419Z" fill="#53B047"/>
<path d="M22.7472 28.6745C20.2838 28.6745 18.2877 26.3864 18.2877 23.5628C18.2877 20.7391 20.2838 18.451 22.7472 18.451C29.1571 18.451 34.3734 12.4719 34.3734 5.11867C34.3734 2.295 36.3696 0.00695801 38.8329 0.00695801C41.2963 0.00695801 43.2925 2.295 43.2925 5.11867C43.2925 18.1075 34.0738 28.6803 22.7472 28.6803" fill="#79246D"/>
<path d="M67.3105 44.4975C58.4677 44.4975 50.1683 40.3697 43.9413 32.8768C37.7752 25.4538 34.3772 15.5913 34.3772 5.11171C34.3772 2.28804 36.3733 0 38.8367 0C41.3001 0 43.2962 2.28804 43.2962 5.11171C43.2962 21.1921 54.0691 34.2683 67.3105 34.2683C69.7739 34.2683 71.77 36.5563 71.77 39.38C71.77 42.2037 69.7739 44.4917 67.3105 44.4917" fill="#DB1E4F"/>
<path d="M24.4073 44.4984C21.9439 44.4984 19.9478 42.2104 19.9478 39.3867C19.9478 36.563 21.9439 34.275 24.4073 34.275C37.6487 34.275 48.4216 21.193 48.4216 5.11843C48.4216 2.29476 50.4177 0.00671387 52.8811 0.00671387C55.3445 0.00671387 57.3406 2.29476 57.3406 5.11843C57.3406 15.598 53.9426 25.4605 47.7765 32.8835C41.5495 40.3764 33.2501 44.5042 24.4073 44.5042" fill="#F06422"/>
<path d="M68.971 28.6733C57.6394 28.6733 48.4207 18.1064 48.4207 5.11171C48.4207 2.28804 50.4168 0 52.8802 0C55.3436 0 57.3397 2.28804 57.3397 5.11171C57.3397 12.4649 62.556 18.4441 68.9659 18.4441C71.4293 18.4441 73.4254 20.7321 73.4254 23.5558C73.4254 26.3795 71.4293 28.6675 68.9659 28.6675" fill="#FAB417"/>
<path d="M5.42455 75.8829C5.10964 75.8829 4.76935 75.8712 4.40365 75.8421C4.03287 75.813 3.66208 75.7315 3.28114 75.5918C2.9002 75.452 2.52435 75.2482 2.14849 74.9688C1.77264 74.6893 1.42217 74.2993 1.10219 73.7986C0.853307 73.4202 0.655213 73.0126 0.507917 72.5818C0.360621 72.1509 0.248877 71.7027 0.17269 71.2369C0.0965023 70.7711 0.0507904 70.2937 0.0304738 69.8047C0.0101571 69.3156 0 68.8266 0 68.3317V63.7964H3.07291L3.06274 68.4016C3.06274 69.0536 3.08813 69.6824 3.13892 70.2763C3.18971 70.8701 3.3421 71.4057 3.59606 71.8831C3.71796 72.1393 3.87033 72.3547 4.0481 72.5294C4.22587 72.704 4.43412 72.8496 4.67284 72.9544C4.91156 73.065 5.19091 73.1407 5.5109 73.1873C5.83089 73.2338 6.19152 73.2571 6.59785 73.2571H12.51C12.9163 73.2571 13.277 73.2338 13.5969 73.1873C13.9169 73.1407 14.1963 73.0592 14.435 72.9544C14.6737 72.8438 14.882 72.704 15.0547 72.5294C15.2274 72.3547 15.3797 72.1393 15.5118 71.8831C15.7657 71.3999 15.9232 70.8585 15.9689 70.253C16.0197 69.6533 16.0451 69.0071 16.0553 68.3259V55.5059H19.1282L19.1028 68.3958C19.1028 68.8499 19.0926 69.2924 19.0774 69.7232C19.0621 70.154 19.0215 70.5732 18.9656 70.9749C18.9097 71.3766 18.8234 71.7667 18.7117 72.1451C18.5999 72.5236 18.4526 72.8962 18.2698 73.2513H20.4132V75.8654H5.41948L5.42455 75.8829ZM6.30325 65.9622H9.88914C9.92978 65.9622 9.9755 65.9505 10.0263 65.9214C10.0771 65.8923 10.1025 65.8399 10.1025 65.7642C10.1025 65.7176 10.0974 65.6827 10.0822 65.6594C10.0669 65.6361 9.99581 65.5954 9.85867 65.543C9.72153 65.4906 9.49804 65.4032 9.18821 65.2868C8.87838 65.1704 8.42635 64.9957 7.83209 64.7687C7.26322 64.5532 6.8518 64.268 6.60292 63.9245C6.35404 63.581 6.23215 63.1094 6.23215 62.5097C6.23215 61.7587 6.39976 61.2289 6.73498 60.9203C7.07021 60.6059 7.51209 60.4487 8.06572 60.4487H12.4541V62.3816H8.88348C8.88348 62.3816 8.82252 62.3816 8.7768 62.3758C8.73109 62.3758 8.68539 62.3758 8.64476 62.3758C8.60412 62.3758 8.56857 62.3933 8.53301 62.4107C8.49746 62.4282 8.48222 62.469 8.48222 62.5272C8.48222 62.5738 8.51269 62.6203 8.57872 62.6669C8.64475 62.7135 8.76156 62.7717 8.93426 62.8474C9.10187 62.9173 9.33551 63.0104 9.63518 63.1152C9.93485 63.2258 10.3107 63.3714 10.778 63.546C11.0827 63.6625 11.3519 63.7906 11.5754 63.9361C11.804 64.0817 11.997 64.2505 12.1544 64.4484C12.3119 64.6406 12.4287 64.8676 12.51 65.1238C12.5862 65.38 12.6268 65.6769 12.6268 66.0204C12.6268 66.5968 12.4846 67.0683 12.2052 67.4351C11.9259 67.8019 11.5246 67.9824 11.0015 67.9824H6.30325V65.9622Z" fill="white"/>
<path d="M20.1804 75.8717V73.2576H20.4801C21.0337 73.2576 21.4756 73.1877 21.8057 73.0422C22.1359 72.8966 22.4102 72.6637 22.6235 72.3319C22.847 71.9709 22.9943 71.5692 23.0654 71.1267C23.1365 70.6784 23.1721 70.2127 23.1822 69.7178C23.1721 69.6538 23.172 69.5897 23.172 69.5315V69.3336H23.1822V60.4492H26.1484V69.3336L26.2094 71.4353C26.311 71.8428 26.4633 72.1689 26.6818 72.4076C26.8951 72.6521 27.1389 72.8326 27.4132 72.9607C27.6874 73.0888 27.9769 73.1703 28.2817 73.211C28.5864 73.2518 28.876 73.2692 29.1502 73.2692H29.4702V75.8833H28.2563C27.9668 75.8833 27.6722 75.8717 27.3674 75.8484C27.0678 75.8251 26.763 75.7727 26.4583 75.697C26.1535 75.6213 25.8539 75.5049 25.5593 75.3477C25.2647 75.1905 24.9904 74.9809 24.7364 74.7131C24.4723 74.9809 24.198 75.1847 23.9136 75.336C23.6292 75.4874 23.3346 75.6039 23.0248 75.6854C22.72 75.7669 22.4051 75.8134 22.08 75.8367C21.76 75.8542 21.4248 75.8658 21.0744 75.8658H20.1804V75.8717ZM21.1353 55.4423H24.0965V58.1553H21.1353V55.4423ZM25.1275 55.4423H28.0887V58.1553H25.1275V55.4423Z" fill="white"/>
<path d="M34.3042 73.2808H39.424V60.4724H42.4004V73.2808H45.1685C45.3006 73.2808 45.4428 73.2749 45.6003 73.2575C45.7577 73.2458 45.9152 73.2109 46.0777 73.1643C46.2403 73.1178 46.3977 73.0479 46.5501 72.9489C46.7025 72.8558 46.8447 72.7219 46.9666 72.553C47.0885 72.4017 47.1901 72.2328 47.2662 72.0465C47.3424 71.8602 47.3983 71.6739 47.4389 71.476C47.4796 71.2838 47.51 71.0917 47.5202 70.8996C47.5304 70.7133 47.5405 70.527 47.5405 70.3581V60.4666H50.5017V70.8879C50.5017 71.6623 50.4001 72.3842 50.1919 73.0421C49.9836 73.7 49.6839 74.2414 49.2878 74.6722C49.0389 74.9284 48.7697 75.138 48.47 75.2952C48.1703 75.4582 47.8707 75.5805 47.571 75.6678C47.2713 75.7551 46.9717 75.8133 46.672 75.8425C46.3723 75.8774 46.1031 75.8948 45.8542 75.8948H29.1539V73.2808H31.338V60.4724H34.3144V73.2808H34.3042Z" fill="white"/>
<path d="M52.0515 78.4392C52.4578 78.4509 52.8083 78.4451 53.1029 78.4334C53.4026 78.4218 53.6616 78.3868 53.8902 78.3344C54.1187 78.282 54.3219 78.2122 54.4997 78.119C54.6774 78.0317 54.8552 77.9152 55.0279 77.7697C55.2006 77.63 55.353 77.4728 55.48 77.2981C55.6069 77.1293 55.7136 76.9255 55.805 76.6926C55.8914 76.4597 55.9574 76.1919 56.0031 75.8834C56.0488 75.5748 56.0691 75.2138 56.0691 74.7947V60.4551H59.0303V75.4933C59.0303 76.1745 58.9693 76.7625 58.8424 77.2632C58.7205 77.7581 58.563 78.1831 58.3852 78.5382C58.2024 78.8875 58.0145 79.1728 57.8214 79.3999C57.6284 79.6211 57.4558 79.8016 57.3085 79.9355C56.7599 80.3779 56.0691 80.6982 55.226 80.8786C54.3829 81.0649 53.3264 81.129 52.0515 81.0708V78.4392Z" fill="white"/>
<path d="M60.4833 75.8833V73.2692H65.3085C65.6132 73.2692 65.9332 73.2517 66.2583 73.2168C66.5834 73.1819 66.8983 73.112 67.203 72.9956C67.5078 72.8791 67.782 72.7161 68.0411 72.4949C68.295 72.2795 68.5135 71.9884 68.6861 71.6274C68.7776 71.4295 68.8487 71.1908 68.9096 70.9171C68.9655 70.6435 69.0112 70.3582 69.0417 70.0671C69.0722 69.7702 69.0925 69.4849 69.1026 69.1996C69.1128 68.9143 69.1229 68.6582 69.1229 68.4311C69.1229 68.3089 69.1229 68.1284 69.1179 67.8839C69.1179 67.6452 69.1026 67.3832 69.0874 67.1037C69.0722 66.8243 69.0468 66.5448 69.0214 66.2595C68.9909 65.9742 68.9553 65.7297 68.9045 65.5201C68.8233 65.1999 68.6963 64.8855 68.5287 64.5886C68.3611 64.2917 68.1427 64.0297 67.8785 63.8085C67.6144 63.5872 67.2945 63.4067 66.9186 63.2728C66.5427 63.1389 66.1008 63.0749 65.598 63.0749H60.7982V60.4608H66.5631C67.1675 60.4608 67.6957 60.519 68.1478 60.6296C68.5998 60.7403 68.996 60.8858 69.3261 61.0547C69.6563 61.2235 69.9305 61.404 70.1489 61.5961C70.3674 61.7824 70.5451 61.9571 70.6772 62.1084C71.048 62.5509 71.3375 63.0458 71.5457 63.5814C71.754 64.117 71.9063 64.6643 72.0028 65.2174C72.1044 65.7705 72.1603 66.3236 72.1755 66.865C72.1908 67.4065 72.2009 67.913 72.2009 68.3787C72.2009 68.8445 72.1908 69.3103 72.1755 69.7411C72.1603 70.1777 72.1247 70.5969 72.0689 71.0044C72.0181 71.412 71.9368 71.8079 71.8352 72.1805C71.7337 72.5589 71.5914 72.9199 71.4187 73.2634H73.9837V75.8775H60.4934L60.4833 75.8833Z" fill="white"/>
<path d="M73.6635 75.8834V73.2694H74.1612C74.3593 73.2694 74.5879 73.2577 74.8418 73.2402C75.0958 73.2228 75.3548 73.1646 75.6139 73.0656C75.8729 72.9666 76.1269 72.8094 76.3656 72.594C76.6043 72.3786 76.8075 72.0817 76.9751 71.6916C77.0513 71.5111 77.1325 71.2375 77.224 70.8649C77.3154 70.4981 77.3763 69.945 77.4119 69.2172C77.4017 69.0251 77.3967 68.8505 77.3967 68.6933V68.2217C77.3967 67.7967 77.4119 67.3018 77.4474 66.7429C77.4779 66.184 77.5592 65.6134 77.676 65.037C77.7979 64.4607 77.9706 63.8959 78.1941 63.3428C78.4226 62.7956 78.7325 62.3182 79.1286 61.9106C79.4994 61.5147 79.9159 61.2062 80.373 60.9849C80.8352 60.7695 81.3025 60.6065 81.785 60.5017C82.2676 60.3969 82.7501 60.3329 83.2326 60.3096C83.7101 60.2863 84.157 60.2747 84.5583 60.2747C84.9595 60.2747 85.4014 60.2863 85.8788 60.3096C86.3563 60.3329 86.8337 60.3969 87.3163 60.5017C87.7988 60.6065 88.2711 60.7695 88.7384 60.9849C89.2006 61.2062 89.6171 61.5089 89.993 61.9106C90.3892 62.3182 90.7041 62.7956 90.9275 63.3428C91.1561 63.8959 91.3237 64.4549 91.4405 65.0254C91.5574 65.596 91.6285 66.1549 91.664 66.6963C91.6945 67.2378 91.7148 67.7035 91.7148 68.1052C91.7148 68.932 91.6691 69.6714 91.5828 70.3292C91.4964 70.9871 91.3745 71.5752 91.2221 72.0875C91.0698 72.5998 90.8869 73.0481 90.6736 73.4324C90.4603 73.8166 90.2317 74.1427 89.9879 74.4046C89.6324 74.7947 89.221 75.0975 88.7537 75.3129C88.2864 75.5341 87.8039 75.6971 87.3112 75.8019C86.8134 75.9125 86.3258 75.9824 85.8484 76.0057C85.3659 76.0348 84.9392 76.0464 84.5583 76.0464C84.1519 76.0464 83.7101 76.0348 83.2326 76.0057C82.7552 75.9766 82.2726 75.9067 81.785 75.8019C81.3025 75.6913 80.8302 75.5283 80.373 75.3129C79.9159 75.0975 79.4994 74.7947 79.1286 74.4046C79.1032 74.3872 79.0677 74.3464 79.0169 74.2882C78.7375 74.6317 78.4277 74.9053 78.0925 75.1149C77.7573 75.3245 77.417 75.4875 77.0665 75.5982C76.716 75.7146 76.3605 75.7903 76.0049 75.8252C75.6494 75.866 75.3091 75.8834 74.9891 75.8834H73.6635ZM81.3127 64.1288C81.0536 64.4898 80.8708 64.8799 80.7591 65.3107C80.6473 65.7357 80.5711 66.1782 80.5356 66.6323C80.4949 67.0864 80.4848 67.5347 80.4899 67.983C80.5 68.4313 80.4899 68.8505 80.4746 69.2464C80.5 69.7587 80.5711 70.2652 80.688 70.7659C80.8048 71.2666 81.0181 71.7324 81.333 72.1574C81.5565 72.4426 81.8003 72.6697 82.0593 72.8385C82.3184 73.0074 82.5875 73.1354 82.8669 73.2228C83.1412 73.3101 83.4256 73.3625 83.7151 73.3916C84.0046 73.4207 84.284 73.4324 84.5583 73.4324C84.8326 73.4324 85.1221 73.4207 85.4065 73.3916C85.6909 73.3625 85.9703 73.3043 86.2446 73.2228C86.5188 73.1354 86.783 73.0074 87.0369 72.8385C87.2909 72.6697 87.5347 72.4426 87.7581 72.1574C87.9816 71.8721 88.1543 71.5751 88.2711 71.2549C88.388 70.9405 88.4794 70.6087 88.5353 70.2652C88.5911 69.9217 88.6267 69.5782 88.6368 69.2289C88.647 68.8796 88.647 68.5303 88.647 68.1926V67.2669C88.647 67.0107 88.6368 66.7429 88.6114 66.4634C88.586 66.184 88.5404 65.9045 88.4743 65.6251C88.4083 65.3456 88.3219 65.0778 88.2102 64.8216C88.0985 64.5655 87.9562 64.3326 87.7835 64.123C87.5601 63.8494 87.3163 63.6281 87.0572 63.4709C86.7982 63.3079 86.5239 63.1857 86.2446 63.0983C85.9652 63.011 85.6808 62.9586 85.3964 62.9353C85.1119 62.912 84.8326 62.9004 84.5583 62.9004C84.3196 62.9004 84.0504 62.912 83.7608 62.9353C83.4663 62.9586 83.1717 63.011 82.8822 63.0983C82.5876 63.1857 82.3031 63.3079 82.0339 63.4709C81.7596 63.6339 81.5209 63.8494 81.3127 64.123" fill="white"/>
<path d="M0.526855 100.563C0.933189 100.574 1.28366 100.568 1.57825 100.557C1.87792 100.545 2.13695 100.51 2.36551 100.458C2.59407 100.405 2.79725 100.336 2.97502 100.242C3.15279 100.155 3.33055 100.039 3.50324 99.8931C3.67593 99.7534 3.82832 99.5962 3.95529 99.4215C4.08227 99.2527 4.18893 99.0489 4.28035 98.816C4.3667 98.5832 4.43274 98.3153 4.47845 98.0068C4.52416 97.6982 4.54448 97.3373 4.54448 96.9181V82.5785H7.51071V95.3869H9.72015V98.001H7.50056C7.47516 98.6181 7.39897 99.1479 7.26691 99.602C7.13485 100.05 6.98248 100.44 6.80979 100.761C6.63709 101.081 6.45424 101.349 6.27139 101.558C6.08347 101.768 5.92601 101.931 5.79395 102.059C5.2454 102.501 4.55463 102.822 3.71149 103.002C2.86835 103.188 1.81188 103.252 0.537008 103.194V100.563H0.526855Z" fill="white"/>
<path d="M9.40759 98.0069V95.3928H11.7288V82.5728H14.7052L14.695 84.6221C14.9083 84.2786 15.1674 83.9933 15.4721 83.7604C15.7718 83.5276 16.0918 83.3354 16.427 83.1841C16.7622 83.0327 17.1025 82.9163 17.4428 82.8348C17.7831 82.7532 18.1082 82.695 18.4028 82.6543C18.7025 82.6135 18.9666 82.596 19.2053 82.5902C19.4389 82.5902 19.6167 82.5844 19.7335 82.5844H25.5238C25.8844 82.5844 26.2653 82.6135 26.6666 82.6717C27.0628 82.73 27.4539 82.8406 27.8399 83.0152C28.2259 83.1841 28.5967 83.4286 28.9573 83.7488C29.3179 84.069 29.643 84.4882 29.9325 85.0064C30.1661 85.443 30.3439 85.8913 30.4709 86.3512C30.5979 86.8112 30.6893 87.2711 30.7503 87.7369C30.8061 88.2026 30.8417 88.6626 30.8518 89.1283C30.862 89.5941 30.862 90.0424 30.862 90.479C30.862 90.9506 30.8518 91.4047 30.8366 91.8356C30.8214 92.2664 30.7807 92.6856 30.7249 93.0873C30.669 93.489 30.5826 93.8849 30.476 94.2691C30.3693 94.6534 30.222 95.0318 30.0392 95.3986H32.0505V98.0127H9.41775L9.40759 98.0069ZM18.8193 85.1985C17.6358 85.2451 16.6911 85.6642 15.9851 86.4502C15.2791 87.2362 14.8423 88.3598 14.6747 89.8211L14.6645 95.3928H24.2489C24.6553 95.3928 25.0159 95.3695 25.3257 95.3229C25.6406 95.2763 25.92 95.1948 26.1638 95.09C26.4076 94.9794 26.6158 94.8397 26.7936 94.6651C26.9713 94.4904 27.1237 94.275 27.2456 94.0188C27.4996 93.5356 27.652 92.9941 27.7028 92.3887C27.7535 91.789 27.7789 91.1602 27.7789 90.5023C27.7789 89.5184 27.7332 88.6917 27.652 88.028C27.5656 87.3643 27.3929 86.8286 27.139 86.4211C26.9561 86.1358 26.7479 85.9146 26.5091 85.7516C26.2704 85.5944 26.0216 85.4663 25.7676 85.379C25.5086 85.2916 25.2546 85.2451 25.0006 85.2218C24.7416 85.2043 24.513 85.1927 24.3048 85.1927H18.8244L18.8193 85.1985Z" fill="white"/>
<path d="M31.7386 98.0068V95.3928H32.2364C32.4345 95.3928 32.663 95.3811 32.917 95.3637C33.171 95.3462 33.43 95.288 33.689 95.189C33.9481 95.09 34.202 94.9328 34.4408 94.7174C34.6795 94.502 34.8826 94.2051 35.0503 93.815C35.1264 93.6345 35.2077 93.3609 35.2991 92.9883C35.3906 92.6215 35.4515 92.0684 35.4871 91.3407C35.4769 91.1485 35.4718 90.9739 35.4718 90.8167V90.3451C35.4718 89.9201 35.4871 89.4252 35.5226 88.8663C35.5531 88.3074 35.6344 87.7368 35.7512 87.1605C35.8731 86.5841 36.0458 86.0193 36.2693 85.4663C36.4978 84.919 36.8076 84.4416 37.2038 84.0341C37.5746 83.6382 37.9911 83.3296 38.4482 83.1084C38.9054 82.8929 39.3777 82.7299 39.8602 82.6251C40.3428 82.5203 40.8253 82.4563 41.3078 82.433C41.7852 82.4097 42.2322 82.3981 42.6335 82.3981C43.0347 82.3981 43.4766 82.4097 43.954 82.433C44.4315 82.4563 44.9089 82.5203 45.3914 82.6251C45.874 82.7299 46.3463 82.8929 46.8136 83.1084C47.2758 83.3296 47.6923 83.6323 48.0682 84.0341C48.4643 84.4416 48.7742 84.919 49.0027 85.4663C49.2313 86.0193 49.3989 86.5783 49.5157 87.1488C49.6326 87.7194 49.7037 88.2783 49.7392 88.8197C49.7697 89.3612 49.79 89.8269 49.79 90.2286C49.79 91.0554 49.7494 91.7948 49.658 92.4527C49.5716 93.1105 49.4497 93.6986 49.2973 94.2109C49.1449 94.7232 48.9621 95.1715 48.7488 95.5558C48.5355 95.94 48.3069 96.2661 48.0631 96.5281C47.7075 96.9181 47.2961 97.2209 46.8289 97.4363C46.3616 97.6575 45.8791 97.8205 45.3864 97.9253C44.8886 98.0359 44.401 98.1058 43.9236 98.1291C43.4461 98.1582 43.0144 98.1699 42.6335 98.1699C42.2271 98.1699 41.7852 98.1582 41.3078 98.1291C40.8304 98.1 40.3478 98.0301 39.8602 97.9253C39.3777 97.8147 38.9054 97.6517 38.4482 97.4363C37.9911 97.2209 37.5746 96.9181 37.2038 96.5281C37.1784 96.5106 37.1429 96.4698 37.0921 96.4116C36.8127 96.7551 36.5029 97.0287 36.1677 97.2383C35.8324 97.4479 35.4921 97.611 35.1417 97.7216C34.7912 97.838 34.4357 97.9137 34.0801 97.9486C33.7246 97.9894 33.3843 98.0068 33.0643 98.0068H31.7386ZM39.3879 86.2522C39.1288 86.6132 38.946 87.0033 38.8342 87.4341C38.7225 87.8591 38.6463 88.3016 38.6108 88.7557C38.5752 89.2098 38.56 89.6581 38.565 90.1064C38.5752 90.5547 38.565 90.9739 38.5549 91.3698C38.5803 91.8821 38.6514 92.3886 38.7682 92.8893C38.885 93.39 39.0984 93.8558 39.4133 94.2808C39.6367 94.566 39.8805 94.7931 40.1396 94.9619C40.3986 95.1308 40.6678 95.2589 40.9472 95.3462C41.2214 95.4335 41.5059 95.4859 41.7954 95.515C42.0849 95.5441 42.3643 95.5558 42.6385 95.5558C42.9128 95.5558 43.2023 95.5441 43.4868 95.515C43.7712 95.4859 44.0506 95.4277 44.3248 95.3462C44.5991 95.2589 44.8632 95.1308 45.1172 94.9619C45.3711 94.7931 45.6149 94.566 45.8384 94.2808C46.0619 93.9955 46.2346 93.6986 46.3514 93.3784C46.4733 93.064 46.5597 92.7321 46.6155 92.3886C46.6714 92.0451 46.707 91.7016 46.7171 91.3523C46.7273 91.003 46.7273 90.6537 46.7273 90.316V89.3903C46.7273 89.1341 46.7171 88.8663 46.6917 88.5869C46.6663 88.3074 46.6206 88.0279 46.5546 87.7485C46.4885 87.469 46.4022 87.2012 46.2905 86.9451C46.1787 86.6889 46.0365 86.456 45.8638 86.2464C45.6403 85.9728 45.3965 85.7515 45.1375 85.5943C44.8784 85.4313 44.6042 85.3091 44.3248 85.2217C44.0455 85.1344 43.761 85.082 43.4766 85.0587C43.1922 85.0354 42.9128 85.0238 42.6385 85.0238C42.3998 85.0238 42.1306 85.0354 41.8411 85.0587C41.5465 85.082 41.2519 85.1344 40.9624 85.2217C40.6678 85.3091 40.3834 85.4313 40.1142 85.5943C39.8399 85.7574 39.6012 85.9728 39.3929 86.2464" fill="white"/>
<path d="M75.3133 98.0063C74.8765 98.0063 74.4143 97.9655 73.9368 97.8782C73.4746 97.7909 73.0379 97.5347 72.6214 97.1097C72.4995 96.97 72.3725 96.7953 72.2506 96.5973C72.1287 96.3994 72.0169 96.1607 71.9153 95.8812C71.8138 95.6018 71.7325 95.2816 71.6716 94.9206C71.6106 94.5597 71.5801 94.1521 71.5801 93.698V91.3226C71.5801 90.7928 71.5801 90.1291 71.5852 89.3257C71.5852 88.5222 71.5903 87.55 71.5903 86.3914C71.6004 86.3332 71.6004 86.2633 71.5903 86.1702C71.5801 86.0828 71.57 85.9897 71.5547 85.8907C71.5395 85.7975 71.5141 85.7044 71.4836 85.6229C71.4532 85.5356 71.4176 85.4715 71.377 85.4249C71.2754 85.3085 71.1433 85.2444 70.9757 85.227C70.8081 85.2095 70.6557 85.1979 70.5237 85.1979H70.163C69.9294 85.1979 69.7161 85.2444 69.5129 85.3376C69.3097 85.4308 69.1472 85.5588 69.0202 85.7219C68.8729 85.9314 68.7815 86.1876 68.746 86.4904C68.7104 86.7931 68.6952 87.0784 68.6952 87.3404L68.6698 92.2891C68.6698 92.7665 68.6494 93.2148 68.6139 93.6398C68.5783 94.0648 68.5072 94.4665 68.4006 94.8391C68.299 95.2117 68.1568 95.5669 67.979 95.8987C67.8012 96.2306 67.5727 96.5391 67.2933 96.8244C66.8362 97.2785 66.3384 97.5871 65.7848 97.7501C65.2362 97.9131 64.5709 97.9946 63.7938 97.9946H61.2288C60.4517 97.9946 59.7863 97.9131 59.2378 97.7501C58.6892 97.5929 58.1864 97.2843 57.7292 96.8244C57.4499 96.5391 57.2213 96.2306 57.0385 95.8987C56.8607 95.5669 56.7185 95.2117 56.6169 94.8391C56.5153 94.4665 56.4442 94.0648 56.4086 93.6398C56.3731 93.2148 56.3528 92.7606 56.3528 92.2891V87.6548H59.3292V91.6778C59.3292 92.3589 59.3647 92.9062 59.4358 93.3196C59.5069 93.7329 59.6339 94.0822 59.8269 94.3792C60.1012 94.7983 60.4364 95.0662 60.8326 95.1884C61.2288 95.3107 61.7012 95.3747 62.2446 95.3747H62.8389C63.3823 95.3747 63.8547 95.3107 64.2509 95.1884C64.6471 95.0662 64.9823 94.7925 65.2566 94.3792C65.4445 94.0881 65.5766 93.7329 65.6477 93.3196C65.7188 92.9062 65.7543 92.3589 65.7543 91.6778L65.7188 87.1424C65.7188 86.8688 65.7289 86.5719 65.7543 86.2633C65.7797 85.9489 65.8203 85.6287 65.8762 85.2969C65.993 84.6157 66.2673 84.0276 66.7092 83.5328C66.9428 83.2708 67.2425 83.0379 67.6082 82.8458C67.9739 82.6537 68.4463 82.5547 69.0152 82.5547L72.2404 82.5838C72.3471 82.5838 72.4741 82.5838 72.6163 82.5896C72.7585 82.5896 72.9058 82.6129 73.0582 82.6537C73.2055 82.6944 73.3578 82.7468 73.5051 82.8167C73.6524 82.8865 73.7896 82.9913 73.9165 83.1194C74.2162 83.4338 74.394 83.8355 74.46 84.3246C74.4905 84.5633 74.5159 84.7671 74.526 84.9417C74.5413 85.1164 74.5464 85.2677 74.5464 85.39V93.2788C74.5464 93.7329 74.5921 94.0939 74.6835 94.3501C74.7749 94.6121 74.8816 94.81 75.0086 94.9381C75.1914 95.1477 75.4047 95.2699 75.6536 95.3165C75.9025 95.3573 76.1514 95.3805 76.4003 95.3805H76.771V97.9946H75.3082L75.3133 98.0063ZM59.1158 100.364H62.0821V103.077H59.1158V100.364ZM63.1131 100.364H66.0794V103.077H63.1131V100.364Z" fill="white"/>
<path d="M76.5383 98.0064V95.3923H78.895C78.4074 94.1406 78.1636 92.3648 78.1636 90.0651C78.1636 88.8542 78.2499 87.7655 78.4226 86.8106C78.6106 85.8442 79.0017 84.9942 79.5858 84.2664C79.9007 83.8705 80.2308 83.5562 80.5711 83.3291C80.9165 83.102 81.2619 82.9332 81.6175 82.8226C81.973 82.712 82.3285 82.6479 82.6841 82.6246C83.0396 82.6013 83.385 82.5897 83.7253 82.5897H88.0629C88.4591 82.5897 88.84 82.6188 89.2108 82.677C89.5765 82.7353 89.9219 82.9099 90.247 83.201C90.5923 83.5445 90.8107 83.9113 90.892 84.3072C90.9936 84.7264 91.0393 85.099 91.0393 85.4308V92.7375C91.0393 93.2673 91.0037 93.7446 90.9326 94.158C90.8615 94.5714 90.765 94.944 90.6482 95.2642C90.5263 95.5844 90.3892 95.8697 90.2266 96.1084C90.0641 96.3529 89.8965 96.5625 89.7238 96.743C89.4495 97.0283 89.1651 97.2553 88.8756 97.4183C88.581 97.5872 88.2762 97.7094 87.9664 97.7968C87.6515 97.8841 87.3315 97.9365 87.0014 97.9598C86.6712 97.9831 86.3258 97.9947 85.9703 97.9947L76.5332 98.0064H76.5383ZM83.1869 95.2758C83.4155 95.3166 83.6491 95.3399 83.8726 95.3632C84.1012 95.3806 84.3196 95.3923 84.538 95.3923L85.3811 95.3806C85.9347 95.3806 86.3766 95.3108 86.7068 95.1652C87.0369 95.0255 87.3112 94.7868 87.5245 94.4549C87.7124 94.1638 87.8496 93.832 87.9258 93.4652C88.002 93.0984 88.0527 92.72 88.068 92.3183V86.4206C88.068 86.1993 88.0477 86.0189 88.007 85.8675C87.9664 85.7161 87.8597 85.5706 87.687 85.425C87.555 85.3319 87.4229 85.2678 87.296 85.2387C87.169 85.2096 87.0369 85.198 86.9049 85.198H84.3602C83.8624 85.198 83.4155 85.2795 83.0091 85.4483C82.6028 85.6171 82.2879 85.85 82.0543 86.1528C81.846 86.4264 81.6886 86.7641 81.5768 87.1658C81.4651 87.5617 81.3838 87.9692 81.333 88.371C81.2822 88.7785 81.2517 89.1569 81.2467 89.5179C81.2365 89.873 81.2365 90.1408 81.2365 90.3213C81.2365 91.0025 81.2619 91.5847 81.3127 92.0679C81.3635 92.5511 81.4244 92.9587 81.5006 93.2847C81.5768 93.6107 81.653 93.8727 81.7394 94.059C81.8257 94.2512 81.912 94.3909 81.9933 94.4841C82.3336 94.9323 82.7298 95.1943 83.1818 95.2817M83.5983 77.6235H86.5646V80.3366H83.5983V77.6235Z" fill="white"/>
</svg>
